<?xml version="1.0" encoding="UTF-8"?>
<!-- Generator: Adobe Illustrator 26.3.1, SVG Export Plug-In . SVG Version: 6.00 Build 0)  -->
<svg xmlns="http://www.w3.org/2000/svg" xmlns:xlink="http://www.w3.org/1999/xlink" version="1.1" id="Capa_1" x="0px" y="0px" viewBox="0 0 735.2 227.9" style="enable-background:new 0 0 735.2 227.9;" xml:space="preserve">
<style type="text/css">
	.st0{fill-rule:evenodd;clip-rule:evenodd;fill:#C6C7C8;}
	.st1{fill:#AF0917;}
	.st2{fill-rule:evenodd;clip-rule:evenodd;}
</style>
<g>
	<path class="st0" d="M151.4,137c-5.2,1.7-7.2,2.1-13.6,3.3c-6.4,1.3-8.4,5.4-16,9.6c-7.6,4.2-11.2,0.4-18,5.8   c-6.8,5.4-8.8,7.1-14.8,9.6c-6,2.5-6.8,6.3-0.8,4.6c4.5-1.2,12.1-5.8,20.4-9.1c2.8-1.1,6-0.6,8.8-1.8c5.1-2.2,9.6-5.9,14.5-8.2   c5.5-2.6,11.1-3.8,14.3-5.6c6-3.3,12-9.2,12-9.2S156.6,135.4,151.4,137z"></path>
	<path class="st0" d="M481.4,73.6c-3.2-2.9-6.8-3.8-6.8-3.8s-6.4-0.8-8.8-4.2c-2.4-3.3-7.6-8.8-12.8-12.5c-5.2-3.8-6.8-6.3-10-8.8   c-3.2-2.5-5.6-0.8-7.6,1.7c-2,2.5-10.4,11.3-13.2,14.2c-2.8,2.9-4.8,2.5-8-1.7c-3.2-4.2-6.4-1.3-10.4-4.6c-4-3.3-7.6-7.1-10.4-11.3   c-2.8-4.2-8.4-5-16.8-15c-3-3.6-1.2-7.9-8-2.9c-6.8,5-16,8.8-20,12.1c-4,3.3-15.6,10.4-18,12.9c-2.4,2.5-6.8,2.5-10,1.7   c-3.2-0.8-6.4,3.8-9.6,5.4c-3.2,1.7-8.4-3.3-11.2-3.3c-2.8,0-7.6,5-9.2,7.1c-1.6,2.1-3.2,2.9-7.6-1.7c-4.4-4.6-4-9.2-10-5   c-6,4.2-10.8,5-14,7.5c-3.2,2.5-6.4,6.7-10.8,8.3c-4.4,1.7-5.2,2.5-8,4.2c-2.8,1.7-0.8,5,2,4.2c2.8-0.8,16.4-8.3,19.6-9.6   c3.2-1.3,9.6-4.6,12-5.8c2.4-1.3,3.2,3.8,6,6.3c2.8,2.5,12,2.5,12,2.5s4-4.6,7.2-7.5c3.2-2.9,5.3-3,9.2-0.8c5.2,2.9,8.8-1.8,14-4.3   c1.1-0.5,7.7,1.4,13.4-1.2c6.2-2.8,11.7-10.3,15.5-13.7c3.3-2.8,18.2-11.7,18.2-11.7s7.6,7.5,12.8,12.1c5.2,4.6,24,17.9,27.2,19.6   c3.2,1.7,6.8,5,6.8,5s8.4,0,10.8-3.3c2.4-3.3,11.6-12.5,11.6-12.5s10.8,5.4,15.2,9.2c4.4,3.8,4,5.4,10.4,9.2   c6.4,3.8,14.4,5.4,18.8,6.7C487.4,79.4,484.6,76.5,481.4,73.6z"></path>
	<path class="st0" d="M650.1,165.4c-2.4-1.3-10.8-5.4-16.4-7.9c-5.6-2.5-21.6-5.8-25.6-8.3c-4-2.5-7.2-7.1-8.8-7.9   c-1.6-0.8-10-0.4-13.2-1.3c-3.2-0.8-8.5-2.2-12.8-5c-3.2-2.1-10,0.8-7.6,1.7c2.4,0.8,9.2,2.9,11.6,5.8c2.4,2.9,14,5,14,5   s5.2,2.9,9.2,5s10,5,14.4,6.7c4.4,1.7,14,2.1,24.8,6.3C650.5,169.6,652.5,166.6,650.1,165.4z"></path>
</g>
<g>
	<path d="M132.4,99.4l0.7-3.4c0.9-3.7-0.6-5.3-2.5-5.3c-3.1,0-4.3,1.6-5.1,4.9l-5,22.4c-0.7,3.3-0.1,4.9,3,4.9c2.8,0,4-1.6,4.6-4.5   l1.2-5.3h7.6l-1.1,5.1c-1.4,6.2-6.2,11.3-13.8,11.3c-8,0-10.5-5.1-9.1-11.3l5-22.8c1.4-6.2,6.2-11.3,14.1-11.3   c7.6,0,10,5.5,8.6,12.1l-0.7,3.2H132.4z"></path>
	<path d="M143.5,128.8h-7.3l17.9-44.2h9.4l-1.7,44.2h-7.3l0.8-9.8H147L143.5,128.8z M149.6,112.5h6.1l1.2-19h-0.1L149.6,112.5z"></path>
	<path d="M173.2,128.8h-7.6l9.8-44.2H186c8.5,0,12.1,3.6,10,13c-1.6,7.1-5,10-7.8,11.1l2,20h-7.7l-1.3-18.3c-1,0.1-2.6,0.2-3.9,0.2   L173.2,128.8z M178.5,104.5h2.7c4.1,0,6-1.5,7.2-6.8c1.2-5.3-0.1-6.8-4.2-6.8h-2.7L178.5,104.5z"></path>
	<path d="M203,128.8h-7.6l9.8-44.2h10.6c8.5,0,12.1,3.6,10,13c-1.6,7.1-5,10-7.8,11.1l2,20h-7.7l-1.3-18.3c-1,0.1-2.6,0.2-3.9,0.2   L203,128.8z M208.4,104.5h2.7c4.1,0,6-1.5,7.2-6.8c1.2-5.3-0.1-6.8-4.2-6.8h-2.7L208.4,104.5z"></path>
	<path d="M225.3,128.8l9.8-44.2h20.3l-1.5,6.6h-12.7l-2.5,11.4h9.8l-1.5,6.6h-9.8l-2.9,13h13.6l-1.5,6.6H225.3z"></path>
	<path d="M259.3,128.8h-7.6l9.8-44.2h10.6c8.5,0,12.1,3.6,10,13c-1.6,7.1-5,10-7.8,11.1l2,20h-7.7l-1.3-18.3c-1,0.1-2.6,0.2-3.9,0.2   L259.3,128.8z M264.7,104.5h2.7c4.1,0,6-1.5,7.2-6.8c1.2-5.3-0.1-6.8-4.2-6.8h-2.7L264.7,104.5z"></path>
	<path d="M286,128.8h-7.3l17.9-44.2h9.4l-1.7,44.2H297l0.8-9.8h-8.3L286,128.8z M292,112.5h6.1l1.2-19h-0.1L292,112.5z"></path>
	<path d="M329.2,95.6c0.5-3.8-1.3-4.9-3-4.9c-2.4,0-4.1,1.6-4.7,4.3c-1.7,7.5,12.9,11.1,10.3,23.1c-1.7,7.3-7.4,11.3-14.5,11.3   c-7,0-9.8-5.6-8.7-12.2l7.5-1c-0.7,4.5,0.6,6.7,3.1,6.7c2.6,0,4.7-1.4,5.3-4c2-8.7-13-11.1-10.2-23.7c1.6-7,6.7-11,14.2-11   c6.2,0,8.9,4.5,8.1,10.7L329.2,95.6z"></path>
	<path class="st1" d="M345.7,84.7h10.4c7.1,0,10.7,4.8,9.1,12.1c-1.6,7.3-7.3,12.1-14.4,12.1H345l-4.4,19.9h-4.8L345.7,84.7z    M346,104.9h5c4.8,0,8.1-2.6,9.4-8.1c1.2-5.5-1-8.1-5.8-8.1h-5L346,104.9z"></path>
	<path class="st1" d="M374.8,129.5c-7.5,0-11.1-6.2-7.5-22.7c3.7-16.5,10-22.7,17.5-22.7c7.5,0,11.1,6.2,7.5,22.7   C388.6,123.2,382.2,129.5,374.8,129.5z M384,88.1c-4.3,0-8.6,3.7-11.9,18.7c-3.3,15-0.7,18.7,3.5,18.7c4.3,0,8.6-3.7,11.9-18.7   S388.2,88.1,384,88.1z"></path>
	<path class="st1" d="M404,84.7h10.6c7.1,0,11.2,4.2,9.6,11.4c-1.1,5-4.2,9.1-9.5,10.8l2.6,21.9h-5l-2.4-20.9l-6.3,0.2l-4.6,20.7   h-4.8L404,84.7z M404.5,104h4.2c6.8,0,9.7-2.7,10.8-7.6c1.1-5-0.5-7.6-7.4-7.6h-4.2L404.5,104z"></path>
	<path class="st1" d="M441.6,84.7l0.3,33.4h0.1l14.9-33.4h7.6l-9.8,44.2h-4.4l9-40.5h-0.1L441,128.8h-3.1l-0.2-40.5h-0.1l-9,40.5   h-4.4l9.8-44.2H441.6z"></path>
	<path class="st1" d="M473.3,129.5c-7.5,0-11.1-6.2-7.5-22.7c3.7-16.5,10-22.7,17.5-22.7c7.5,0,11.1,6.2,7.5,22.7   C487.2,123.2,480.8,129.5,473.3,129.5z M482.5,88.1c-4.3,0-8.6,3.7-11.9,18.7c-3.3,15-0.7,18.7,3.5,18.7c4.3,0,8.6-3.7,11.9-18.7   C489.4,91.8,486.8,88.1,482.5,88.1z"></path>
	<path class="st1" d="M509.4,84.7l4.2,32.5h0.1l7.2-32.5h4.8l-9.8,44.2h-5.1l-5.2-38.4h-0.1l-8.5,38.4h-4.8l9.8-44.2H509.4z"></path>
	<path class="st1" d="M552.4,84.7l-0.9,4h-9.1l-8.9,40.1h-4.8l8.9-40.1h-9.1l0.9-4H552.4z"></path>
	<path class="st1" d="M567.5,84.7l-0.1,44.2h-4.8l0.2-13.1h-11.3l-5.5,13.1h-4.8l19.5-44.2H567.5z M553.3,111.7h9.9l0.4-23.7h-0.1   L553.3,111.7z"></path>
	<path class="st1" d="M588.7,84.7l4.2,32.5h0.1l7.2-32.5h4.8l-9.8,44.2H590l-5.2-38.4h-0.1l-8.5,38.4h-4.8l9.8-44.2H588.7z    M585.1,81.7c0.6-2.6,3.1-6,6-6c1.5,0,2.9,0.7,4.1,1.3c1.2,0.7,2.3,1.3,3.4,1.3c1.8,0,2.4-1.5,3-3.1h2.2c-0.9,3-2.7,6-6.1,6   c-1.3,0-2.6-0.7-3.7-1.3c-1.2-0.7-2.4-1.3-3.5-1.3c-1.7,0-2.7,1.5-3.1,3.1H585.1z"></path>
	<path class="st1" d="M625.3,84.7l-0.1,44.2h-4.8l0.2-13.1h-11.3l-5.5,13.1h-4.8l19.5-44.2H625.3z M611,111.7h9.9l0.4-23.7h-0.1   L611,111.7z"></path>
</g>
<g>
	<path d="M436.5,161.7c0-0.8-0.3-1.2-1-1.2c-0.1,0-0.1,0-0.2,0c-0.3,0-0.4,0-0.5-0.2c0-0.1,0-0.2,0.2-0.3c0.2,0,0.4-0.1,0.6,0   c0.7,0.1,1.3,0.5,1.5,1.1c0.2,0.4,0.3,0.7,0.3,1.1c0,1.2-0.5,2.5-1.4,3.6c-0.9,1.2-2.1,1.8-3.5,1.8c-0.5,0-1-0.2-1.3-0.5   c-0.3-0.3-0.5-0.7-0.5-1.2c0-0.6,0.3-1.6,1-3.1c-1.2,2.2-1.9,3.5-2.3,3.8c-0.1,0.1-0.2,0.1-0.2-0.1c0,0,0-0.1,0-0.2   c0.5-0.7,1.5-2.5,3-5.4c1.5-2.9,2.6-4.9,3.2-5.8c0.5-0.7,1-1.1,1.4-1.1h0h0.1c0,0,0.1,0,0.4,0.1c0.2,0,0.4,0.1,0.5,0   c-0.5,0.5-1.2,1.5-2.2,3c-2.5,3.8-3.8,6.6-3.8,8.4c0,0.8,0.2,1.2,0.7,1.3c0,0,0.1,0,0.2,0c0.4,0,1-0.4,1.7-1.2   c0.7-0.8,1.2-1.7,1.7-2.7C436.4,162.6,436.5,162.1,436.5,161.7z"></path>
	<path d="M435.5,174.4c-0.6,0-1.1-0.1-1.5-0.4c-0.3-0.3-0.5-0.6-0.5-1c0-0.4,0.1-0.8,0.3-1.3c0.4-0.7,1.1-1.3,2-1.8   c0.7-0.3,1.7-0.7,2.9-1c1.2-0.3,2-0.5,2.3-0.6c0.5-0.9,1.1-2.5,1.9-4.9c-0.8,1.5-1.5,2.5-2.1,3.1c-0.6,0.6-1.1,0.9-1.7,0.9   c-0.8,0-1.2-0.3-1.4-1c-0.1-0.1-0.1-0.3,0-0.5c0-0.2,0-0.3,0.1-0.4c0-0.1,0.1-0.2,0.1-0.4c0.1-0.2,0.1-0.3,0.2-0.4   c0.2-0.3,0.3-0.6,0.4-0.8c-0.2,0-0.3-0.1-0.2-0.3l0.4-0.8c0.5-0.9,0.9-1.7,1.2-2.4c0.1-0.3,0.4-0.5,0.8-0.5h1.3   c0,0-0.1,0.1-0.2,0.2c-0.3,0.2-0.5,0.4-0.6,0.6c-0.5,0.9-1.2,2.2-1.9,3.8c-0.3,0.7-0.5,1.2-0.5,1.5c0,0.3,0.1,0.5,0.2,0.7   c0.1,0.1,0.3,0.2,0.4,0.2c0.3,0,0.7-0.3,1.1-0.9c1-1.2,2.2-3.1,3.4-5.6c0.2-0.3,0.4-0.5,0.8-0.5h1.2c-0.4,0.3-0.7,0.6-0.9,1   c-0.2,0.4-0.5,0.9-0.7,1.6c-0.3,0.7-0.6,1.6-0.9,2.7c-0.4,1.1-0.7,2-0.9,2.5c1.4-0.4,2.4-1.1,3.1-2.1c0.3-0.4,0.8-1.2,1.4-2.4   c0.1-0.2,0.2-0.3,0.3-0.2c0.1,0,0.1,0.1,0.1,0.2s-0.1,0.3-0.4,0.8c-0.2,0.5-0.5,0.9-0.7,1.3s-0.6,0.8-1,1.3c-0.4,0.4-0.8,0.8-1.3,1   c-0.5,0.3-1.1,0.5-1.9,0.8c-1.1,2-2.2,3.5-3.3,4.4C437.9,173.9,436.7,174.4,435.5,174.4z M434.3,172.2c-0.2,0.3-0.2,0.6-0.2,0.9   s0.1,0.5,0.3,0.6c0.2,0.1,0.5,0.2,0.8,0.2c0.8,0,1.7-0.4,2.7-1.3c1-0.9,1.8-1.8,2.5-2.8l0.5-0.8c-2.4,0.6-3.9,1.1-4.5,1.3   C435.3,170.9,434.7,171.4,434.3,172.2z"></path>
</g>
<g>
	<path class="st2" d="M555.2,161.6c-0.7,0.1-1.4,0.8-2,1.1c-1.9,1.1-4.9,0.8-5.9-0.9c-0.4-0.6-0.6-1.3-0.2-2.1   c0.4-0.7,1.4-1.1,2.1-1.4c1.1-0.4,2.6-1.2,4.3-1.8c0,0,1.5-0.8,1.9-1.6c0.1-0.1,0.1-0.2,0.2-0.4c1-2.5-1.3-4.8-3.2-5.6   c-0.8-0.3-1.9-0.4-2.8-0.4c-1.3-0.1-2.7,0.5-3.7,1.1c-4.5,2.5-5.2,8.1-3.1,12.5c0.5,1,1.4,2.1,2.3,2.7c2,1.3,4.4,1.8,7,0.9   c0.7-0.3,1.4-0.7,2-1c0.7-0.4,1.4-1.2,1.8-1.8C556.3,162.4,556,161.5,555.2,161.6z M545.9,157.9c-0.1,0-0.2,0-0.2-0.2   c-0.7-3,0-6.2,3-6.7c0.8-0.1,1.6,0.3,2.1,0.8c0.2,0.2,0.3,0.3,0.4,0.4l0.1,0.1c0,0,0.3,0.7,0.4,1.1c0,0.1,0.1,0.3,0.1,0.3   c0,0.5,0,0.8-0.5,1.2c-0.3,0.2-2.1,0.9-2.8,1.4c-0.4,0.2-0.8,0.4-1,0.5C546.9,157,545.9,157.9,545.9,157.9z M489.2,173.8   c-0.3-0.2-0.5-0.4-0.7-0.7c-0.2-0.2-0.3-0.5-0.4-0.8c-0.5-1.7,0.4-2.9,1.8-3.8c1.4-0.9,3.1-1.6,4.6-2.5l0.2-0.1   c0.7-0.5,1.3-0.9,1.7-1.4c0.4-0.5,0.8-1,1-2c0-0.1,0-0.5,0-0.5c0-2.1-4-3.8-4-3.8c-1.9-0.9-3.5-1.5-3.9-3.6   c-0.1-0.4-0.1-0.9-0.1-1.4c0-0.5,0.2-1,0.4-1.4c0.5-1,1.1-1.7,1.9-2.2c0.7-0.5,1.7-0.8,2.9-0.9c0.7-0.1,1.3,0.1,1.9,0.3   c0.6,0.2,1.1,0.5,1.7,0.6c0.4,0.1,0.8-0.3,1.2-0.5c0.4-0.3,0.9-0.4,1.5,0.2c0.1,0.1,0.2,0.3,0.1,0.5c0,0.2-0.1,0.4-0.2,0.5   c-0.1,0.1-0.4,0.8-0.5,0.9c-0.3,0.4-0.7,1.4-1.1,2.2c-0.5,0.8-1,1.4-1.7,0.8c-0.1-0.1-0.2-0.4-0.2-0.5l0-0.4c-0.1-0.5,0-0.5,0-0.9   c0-0.4-0.2-0.9-0.9-1.4c-0.2-0.1-0.4-0.2-0.6-0.3c-0.3-0.1-1.1-0.2-1.1-0.2c0,0-0.9,0.1-1.4,0.5c-0.4,0.4-0.7,0.8-0.8,1.3   c0,0-0.1,0.6,0.3,1.1c0.3,0.3,0.6,0.7,1.1,1c1,0.6,2.8,1.3,2.8,1.3c0.9,0.4,1.7,0.8,2.5,1.3c0.3,0.2,0.7,0.6,1,1   c0.3,0.4,0.5,0.9,0.6,1.4c0,0,0.1,0.7,0.1,0.7c0.3,2.9-1,4.5-2.7,5.8c-1.8,1.3-3.8,2-5.4,3.2l-0.2,0.2c-0.6,0.5-0.5,1.1-0.5,1.1   c0,0.2,0,0.4,0.1,0.6l0.2,0.7l0.1,0.3c0.1,0.3,0.1,0.6-0.1,1c-0.1,0.3-0.3,0.7-0.8,1c-0.4,0.2-0.8,0.3-1.1,0.2   C489.9,174.1,489.5,173.9,489.2,173.8z M558.1,142.2c-0.1-0.2,0.1-0.9-1-0.8c-0.9,0.1-1.4-0.5-1.2-1.4c0.1-0.4,0.3-0.7,0.6-0.8   l6.3-3.6c0.9-0.3,1.4,0.6,1.1,1.3c-0.2,0.7-1.7,1.7-1.6,2.6l-0.1,22.9c0.1,0.9,0.9,1.1,2,1.3c0.8,0.1,0.9,1.9-0.3,1.9l-7.1,0   c-0.6,0-0.8-0.2-0.9-0.4c-0.5-1.1,0.4-1.6,1.2-1.7c0.4-0.1,1-0.6,1.1-1.2C558.4,161.2,558.1,142.2,558.1,142.2z M522.2,140.9   c3.7-0.2,3.2,5.2,0.1,5.2C519.2,146.2,518.8,141,522.2,140.9z M508.7,163.3c0.4,0.5,1,0.4,1.7,0.7c0.3,0.1,0.5,0.5,0.4,0.9   c-0.1,0.4-0.3,0.7-0.6,0.8l-7.7,0c-0.5-0.1-0.8-0.9-0.5-1.4c0.6-1,2-0.1,2.5-1.8c0.1,0,0.1-10-0.3-10.5c-0.3-0.4-0.7-0.7-1.2-0.7   c-1.3-0.1-1.6-1.4-0.7-1.9c0.6-0.4,1.6-0.2,2.5-0.3c0.2,0,0.4,0,0.4,0c0.3-0.1,0.7-0.1,0.9-0.3c0.3-0.2,0.9-0.4,1.3-0.4   c1.6-0.2,0.9,1.7,1.1,1.8c0.2,0.1,0.9-0.4,1.1-0.5c0.9-0.5,2.3-1,3.7-0.8c4,0.6,5.6,3.7,5.6,7.6v0.5c-0.2,2.6-0.6,5.4-1.8,7.5   c-1.5,2.7-3.4,5.2-5.7,7.1c-0.3,0.3-1,1.1-1.7,0.8c-1-0.4,0.3-1.6,0.6-1.9c0.5-0.9,1.3-1.7,1.9-2.6c0.1-0.2,0.2-0.4,0.3-0.6   c0,0,1.6-3,2-5c0,0,0.7-4,0.4-5.9c-0.4-2.3-0.7-2.4-1.5-3.5c-0.7-1-2-1.4-3.6-0.6c-0.6,0.3-1.3,1.4-1.4,2.2l-0.1,0.6   c-0.1,1.4,0,4.1-0.1,6.1l0,0.4c0,1,0.1,1.4,0.2,1.6C508.5,163.1,508.6,163.2,508.7,163.3z M487.8,161.1c-0.7,0.1-1.4,0.8-2,1.1   c-1.9,1.1-4.9,0.8-5.9-0.9c-0.4-0.6-0.6-1.3-0.2-2.1c0.4-0.7,1.4-1.1,2.1-1.4c1.1-0.4,2.6-1.2,4.2-1.9c0,0,1.8-1,2-1.5   c0.1-0.1,0.1-0.2,0.2-0.4c1-2.5-1.3-4.8-3.2-5.6c-0.8-0.3-1.9-0.5-2.8-0.4c-1.3,0.1-2.7,0.5-3.7,1.1c-4.5,2.5-5.2,8.1-3.1,12.5   c0.5,1,1.4,2.1,2.3,2.7c2,1.3,4.4,1.8,7,0.9c0.7-0.3,1.3-0.6,2-1c0.7-0.4,1.4-1.2,1.8-1.8C489,161.8,488.6,160.9,487.8,161.1z    M478.6,157.3c-0.2,0.1-0.3,0-0.3-0.2c-0.7-3,0-6.2,3-6.7c0.8-0.1,1.6,0.3,2.1,0.8c0.2,0.2,0.3,0.3,0.4,0.4l0.1,0.1   c0,0,0.3,0.7,0.4,1.1c0,0.1,0.1,0.3,0.1,0.3c0,0.5,0,0.8-0.5,1.2c-0.3,0.2-2,1-2.8,1.4c-0.4,0.2-0.9,0.4-1.2,0.6   C479.5,156.6,478.8,157,478.6,157.3z M517.9,164.5c0.1-0.3,0.5-0.7,0.9-0.7c0.6-0.1,1.4-0.3,1.5-0.9c0.1-0.3,0.1-0.5,0.2-0.8   c0-1.1,0.1-9.5-0.2-10c-0.5-0.9-0.9-0.8-1.5-0.9c-0.4-0.1-1-0.5-0.8-1.3c0-0.1,0.2-0.3,0.2-0.3c0.7-0.6,1.9-0.4,3-0.5   c0.8-0.1,1.5-0.5,2.2-0.7c0.3-0.1,0.8,0.1,1,0.3c0,0,0.4,0.4,0.3,0.7c-0.1,0.3-0.1,0.6-0.1,0.8c-0.1,1.1-0.4,12.3,0.1,13.1   c0.3,0.6,0.9,0.6,1.6,0.8c0.5,0.1,0.9,0.5,0.7,1.1c-0.1,0.4-0.5,0.6-0.8,0.7c-0.7,0.2-3.5,0.1-5.6,0h-0.3c-1.1,0-1.6,0.1-2.1-0.4   C517.8,165.1,517.9,164.5,517.9,164.5z M468.4,141.7c-1.9-1.4-4.4-2-6.9-2.3c-2.3-0.1-4.5-0.2-6.5-0.1c-0.8,0-1.6,0.1-2.5,0.1   c-1.7,0-2,1.8-0.6,2.2c0.7,0.2,1.7,0.5,1.9,1.4l0.2,19.4c-0.3,1.3-1.9,0.7-2.7,1.5c-0.2,0.2-0.2,0.6-0.1,0.9c0,0.1,0.2,0.3,0.4,0.4   c0.3,0.1,9.1,0.4,10.5,0.3c2.5-0.1,4.6-0.5,6.1-1.6C475.4,158.9,475.4,146.9,468.4,141.7z M468.2,155.3c0,0-0.9,5.2-2.7,6.5   c-0.5,0.4-0.9,0.8-1.5,1.1c0,0-0.8,0.2-1.1,0.3c-1.6,0.3-2.9-0.5-3.5-1.4c-0.7-1.1-0.6-4.5-0.6-5.9c0,0,0.1-13.9,0.1-13.8   c0.1-0.5,0.6-0.5,0.9-0.5c0.4,0,0.5,0,1,0.1l0.2,0c0.3,0.1,1.2,0.2,1.8,0.5c0.3,0.2,1.4,0.7,1.7,0.9c1.5,0.9,2.9,2.8,3.4,4.7   C468.2,149.9,468.5,152.5,468.2,155.3z M535,158.9c0.2,0.6,0.9,2.3,1,2.3c0,0,0,0,0.1,0c0.7-1,2.6-7.4,2.9-8c0,0,0.1-0.3,0.1-0.6   c0,0-0.3-0.9-0.7-1c-0.5-0.2-0.7-0.1-1.1-0.4c-0.5-0.2-0.9-0.9-0.1-1.6c0.6-0.2,1.3-0.1,1.7-0.2c0,0,1.5-0.2,1.8-0.3   c0.5-0.2,0.9-0.4,1.4-0.4c0.2,0,0.3,0.1,0.5,0.2c0.1,0.1,0.2,0.1,0.3,0.2c0.2,0.3,0.1,0.7,0,1.1c-1.5,4-3.1,7.9-4.7,12.2   c-0.3,0.7-0.8,3-1.3,3.3c-0.5,0.3-2.3,0.5-2.9,0.2c-0.3-0.2-0.5-0.8-0.6-1c-0.4-0.7-1.5-3.8-2.1-5.5c-0.2-0.5-1.5-3.3-1.8-3.9   c-0.4-0.8-0.7-2-1.1-2.6c-0.2-0.3-0.5-0.8-0.9-1c-1.7-0.5-1.5-0.6-1.6-0.7c-0.5-0.6-0.1-1.1-0.1-1.1s0-0.3,0.9-0.5   c0.5-0.1,5.5-0.2,6.7,0c0.4,0.1,0.7,0.1,0.8,0.3c0.4,0.5,0.1,1.1-0.3,1.4c-0.5,0.4-1.1,0.3-1.2,1.1c0,0,0,0.4,0.1,0.5   C533,153.9,534.7,158.1,535,158.9z"></path>
</g>
</svg>
