<?xml version="1.0" standalone="no"?><svg xmlns="http://www.w3.org/2000/svg" viewBox="0 0 1440 320"><path fill="#00cba9" fill-opacity="1" d="M0,32L24,58.7C48,85,96,139,144,144C192,149,240,107,288,117.3C336,128,384,192,432,213.3C480,235,528,213,576,208C624,203,672,213,720,186.7C768,160,816,96,864,85.3C912,75,960,117,1008,149.3C1056,181,1104,203,1152,202.7C1200,203,1248,181,1296,170.7C1344,160,1392,160,1416,160L1440,160L1440,320L1416,320C1392,320,1344,320,1296,320C1248,320,1200,320,1152,320C1104,320,1056,320,1008,320C960,320,912,320,864,320C816,320,768,320,720,320C672,320,624,320,576,320C528,320,480,320,432,320C384,320,336,320,288,320C240,320,192,320,144,320C96,320,48,320,24,320L0,320Z"></path></svg>